<?xml version="1.0" encoding="UTF-8"?>
<svg version="1.1" viewBox="0 0 1920 1831" width="1280" height="1280" xmlns="http://www.w3.org/2000/svg">
<path transform="translate(0)" d="m0 0h1920v1831h-1920z" fill="#FDFDFD"/>
<path transform="translate(1570)" d="m0 0h350v1831h-367l-41-2-23-2-19-4-16-6-15-8-11-8-10-9-12-12-9-11-13-17-12-18-12-20-13-24-13-28-12-30-10-28-11-35-11-42-9-39-10-52-8-49-4-32-3-36-1-21v-54l2-37 4-39 6-40 7-36 9-39 10-36 12-38 10-29 16-42 16-38 18-40 18-37 15-33 10-24 11-30 8-28 6-28 3-22 1-13v-40l-3-28-6-31-8-29-12-36-17-50-12-39-9-37-5-30-2-19-1-18v-29l3-31 5-26 7-24 10-24 10-19 8-12 9-12 12-14 10-10 11-9 13-10 13-8 23-12 25-9 25-6z" fill="#221D1F"/>
<path transform="translate(528,731)" d="m0 0h44l30 2 39 5 35 7 33 9 33 11 27 11 28 13 28 15 21 13 15 10 18 13 13 10 13 11 11 9 7 7 8 7 21 21 7 8 9 10 9 11 12 15 13 18 15 23 13 22 14 27 11 23 13 33 11 34 9 36 6 33 4 34 2 37v28l-2 33-4 34-6 33-9 36-12 37-13 32-8 18-10 19-11 20-13 21-13 19-14 19-14 17-12 14-15 16-19 19-8 7-10 9-11 9-18 14-18 13-22 14-24 14-29 15-30 13-30 11-26 8-32 8-32 6-33 4-27 2h-575v-576l3-36 5-35 6-29 7-27 12-37 11-27 9-20 12-24 14-24 10-16 13-19 9-12 11-14 11-13 12-14 33-33 8-7 15-13 17-13 19-14 23-15 24-14 27-14 24-11 31-12 31-10 36-9 26-5 29-4 22-2z" fill="#FCFCFC"/>
<path transform="translate(1439,793)" d="m0 0h297l8 16 19 39 16 36 11 25 12 30 13 35 13 38 12 41 10 40 9 45 6 42 3 30 2 35v49l-2 36-4 37-7 46-9 49-11 49-10 39-14 45-12 32-9 21-12 25-10 19-13 21-11 15-11 14-12 13-10 9-10 6-14 5-10 2-45 3h-93l-44-3-14-3-12-5-11-7-12-11-12-14-15-20-12-19-10-18-10-19-14-32-10-27-12-36-12-44-9-38-10-50-8-48-5-39-3-37-1-46 1-35 3-37 5-40 8-44 10-42 11-40 15-46 16-43 16-39 17-38 16-34 14-29z" fill="#FDFDFD"/>
<path transform="translate(528,731)" d="m0 0h44l30 2 39 5 35 7 33 9 33 11 27 11 28 13 28 15 21 13 15 10 18 13 13 10 13 11 11 9 7 7 8 7 21 21 7 8 9 10 9 11 12 15 13 18 15 23 13 22 14 27 11 23 13 33 11 34 9 36 6 33 4 34 2 37v28l-2 33-4 34-6 33-9 36-12 37-13 32-8 18-10 19-11 20-13 21-13 19-14 19-14 17-12 14-15 16-19 19-8 7-10 9-11 9-18 14-18 13-22 14-24 14-29 15-30 13-30 11-26 8-32 8-32 6-33 4-27 2h-575v-576l3-36 5-35 6-29 7-27 12-37 11-27 9-20 12-24 14-24 10-16 13-19 9-12 11-14 11-13 12-14 33-33 8-7 15-13 17-13 19-14 23-15 24-14 27-14 24-11 31-12 31-10 36-9 26-5 29-4 22-2zm-7 51-33 3-32 5-32 7-30 9-20 7-27 11-33 16-24 14-19 12-18 13-13 10-11 9-15 13-7 7-8 7-13 13-7 8-9 10-9 11-14 18-14 20-13 21-14 25-14 29-13 33-10 31-7 28-5 26-4 29-2 23v62l3 32 6 37 6 26 9 30 10 28 13 30 11 22 14 24 10 16 12 17 12 16 11 13 9 11 8 8 7 8 15 15 8 7 11 10 28 22 20 14 19 12 25 14 22 11 31 13 35 12 31 8 24 5 35 5 24 2h60l33-3 36-6 30-7 30-9 27-10 23-10 21-10 23-13 18-11 19-13 21-16 11-9 10-9 8-7 31-31 7-8 14-17 15-20 16-24 13-22 12-23 11-23 12-31 10-31 9-38 5-30 3-28 1-16v-48l-3-36-5-33-7-31-8-28-9-26-10-24-12-25-11-21-16-26-12-17-12-16-13-16-9-10-7-8-30-30-11-9-9-8-17-13-15-11-17-11-20-12-28-15-27-12-29-11-29-9-34-8-29-5-28-3-13-1z" fill="#221D1F"/>
<path transform="translate(1576,50)" d="m0 0h23l24 3 19 5 16 6 16 8 16 10 14 12 15 15 11 15 10 17 9 20 6 19 5 24 2 16 1 29-2 31-4 27-6 28-10 36-12 36-21 62-8 28-6 26-4 24-2 18-1 18v19l1 22 4 30 6 29 3 13h-226l2-11 6-29 4-29 1-16v-36l-2-23-5-30-5-23-10-34-20-59-12-36-10-36-6-29-4-28-1-12v-40l3-25 5-22 7-21 11-23 12-18 12-14 10-10 14-11 18-11 17-8 18-6 25-5z" fill="#FDFDFD"/>
<path transform="translate(1606)" d="m0 0h314v1232h-1l-3-40-4-34-7-43-9-43-10-39-13-43-14-41-15-39-12-29-15-34-13-28-17-35-14-32-13-34-9-28-7-28-6-36-1-12v-39l4-33 8-36 9-30 16-48 14-41 10-35 7-30 5-33 2-24v-40l-2-22-4-23-6-24-9-24-9-19-13-21-11-14-12-13-11-11-17-13-14-9-16-9-19-8-22-7-24-5-17-2z" fill="#FDFDFD"/>
<path transform="translate(0,1307)" d="m0 0h1l3 37 6 40 7 31 8 29 12 35 11 26 14 29 9 17 15 25 10 15 10 14 9 12 13 16 11 13 14 15 27 27 8 7 13 11 17 13 16 12 26 17 22 13 27 14 21 10 33 13 37 12 37 9 35 6 37 4 15 1v1h-524z" fill="#FDFDFD"/>
<path transform="translate(1480,515)" d="m0 0h215l-1 8-4 24-2 18-1 18v19l1 22 4 30 6 29 3 13h-226l2-11 6-29 4-29 1-16v-36l-2-23-5-30z" fill="#ED1B24"/>
<path transform="translate(1919,1310)" d="m0 0h1v521h-293v-1l39-2 19-2 20-4 19-7 11-6 14-10 13-12 12-14 12-15 12-17 13-21 10-18 8-16 11-23 12-30 13-37 11-37 10-39 10-45 10-54 7-46 4-37z" fill="#FDFDFD"/>
<path transform="translate(334,936)" d="m0 0 2 1-12 13-9 11-10 12-12 16-20 30-15 26-15 30-13 32-12 36-8 32-5 27-4 32-2 32v30l2 33 4 31 7 36 9 33 10 29 12 29 8 17 12 22 13 22 8 12 12 17 10 13 9 11 12 14 9 10h-3l-11-7-14-10-13-10-13-11-13-12-21-21-9-11-8-9-14-19-10-15-12-20-14-27-11-26-11-33-8-32-5-32-2-21v-56l3-29 6-33 8-30 9-26 13-30 14-27 12-19 11-16 10-13 9-11 12-14 26-26 11-9 13-11 18-13z" fill="#231D1F"/>
<path transform="translate(1474,696)" d="m0 0h227l8 25 10 29 9 22 8 19v2h-297l5-13 11-27 12-34z" fill="#ED1B24"/>
<path transform="translate(1416,964)" d="m0 0h1l-1 14-12 92-7 64-3 37-2 46v38l2 45 4 45 7 55 9 55 8 42 9 41 8 31 12 40 9 26 13 32 12 25 10 19 10 16v1l-9-1-9-6-10-11-13-17-10-15-12-21-13-26-13-31-16-47-10-36-9-37-12-60-9-57-4-38-1-14-1-27v-26l2-43 4-39 7-43 8-38 10-39 13-42 10-29z" fill="#231D1F"/>
<path transform="translate(1489,612)" d="m0 0h198l3 29 5 29 6 26h-226l2-11 6-29 4-29z" fill="#FDFDFD"/>
<path transform="translate(1527,114)" d="m0 0 2 1-9 16-8 19-6 20-4 19-2 16-1 14v25l2 23 4 23 13 60 4 24 1 11v12l-3 16-6 15-5 8-2-3-21-61-10-33-8-32-5-32-1-10v-40l3-22 6-21 6-15 9-16 8-10 10-11 13-10z" fill="#231D1F"/>
<path transform="translate(462,1200)" d="m0 0h16l15 4 14 7 13 11 10 13 7 16 3 13v20l-3 13-7 14-8 10-3 2-2-21-5-16-7-12-8-10-8-7-14-8-11-4-16-2-15 2-13 5-11 7-1-4 3-12 7-14 9-11 11-8 11-5z" fill="#231D1F"/>
<path transform="translate(616,934)" d="m0 0 17 1 15 4 16 8 12 11 8 11 5 12 2 10v12l-3 13-6 12-11 13-2-2-2-15-6-14-7-9-8-8-13-8-14-5-11-2h-18l-14 3-12 5-10 6-4 2 1-11 5-13 7-10 5-6 12-9 15-7 13-3z" fill="#231D1F"/>
<path transform="translate(776,1111)" d="m0 0h19l14 4 12 7 11 10 7 10 6 12 4 16v23l-4 15-8 16-8 9-2-1v-18l-4-16-4-9-6-10-10-11-11-7-12-5-10-2h-12l-16 4-12 6-8 6 1-9 5-13 5-9 9-11 10-8 12-6z" fill="#231D1F"/>
</svg>
